<?xml version="1.0" encoding="iso-8859-1"?>
<!-- Generator: Adobe Illustrator 16.0.0, SVG Export Plug-In . SVG Version: 6.00 Build 0)  -->
<!DOCTYPE svg PUBLIC "-//W3C//DTD SVG 1.1//EN" "http://www.w3.org/Graphics/SVG/1.1/DTD/svg11.dtd">
<svg version="1.1" id="Capa_1" xmlns="http://www.w3.org/2000/svg" xmlns:xlink="http://www.w3.org/1999/xlink" x="0px" y="0px"
	 width="465.608px" height="465.608px" viewBox="0 0 465.608 465.608" style="enable-background:new 0 0 465.608 465.608;"
	 xml:space="preserve">
<g>
	<g>
		<path d="M260.344,2.817C259.631,1.108,257.976,0,256.128,0c-0.597,0-1.174,0.118-1.739,0.344L134.837,49.818
			c-2.322,0.966-3.438,3.635-2.471,5.965l55.753,134.722l14.381,34.752l2.741,6.626c0.94,2.26,3.657,3.41,5.957,2.46l1.679-0.689
			c-0.28-1.286-0.563-2.544-0.877-3.895c-2.637-11.135-3.186-20.189-2.607-27.575c1.461-18.611,10.285-26.369,12.539-28.04
			c1.411-1.467,6.516-6.218,13.385-6.218c2.354,0,4.576,0.579,6.681,1.649c5.618,2.833,10.351,9.387,14.098,19.687
			c0.931,2.568,2.661,6.927,3.936,9.407c0.044,0,0.104-0.016,0.169-0.016c0.16,0.399,0.26,0.839,0.553,1.162
			c0.076,0.272,0.18,0.495,0.26,0.751c0.197,0.651,0.413,1.28,0.682,1.832c-0.04,0.008-0.068,0.008-0.116,0.008l3.427,9.111
			l9.958-3.843l2.897-1.124l1.912-0.736l1.839-0.717l0.421-0.164l3.467-1.343l45.268-18.732c2.324-0.962,3.442-3.633,2.477-5.965
			L260.344,2.817z M276.405,137.897l-38.082-15.252l-15.252,38.083l-18.442-7.386l15.252-38.083l-38.083-15.256l7.39-18.438
			l38.081,15.252l15.25-38.083l18.446,7.388l-15.256,38.083l38.087,15.256L276.405,137.897z" fill="#FFD700"/>
		<path d="M148.813,337.227c0.519,0.537,0.959,0.998,1.396,1.427c1.288,1.25,2.15,1.991,2.395,2.192
			c0.721,0.721,1.431,1.426,2.212,2.191h-0.008l2.665,2.609l1.426,1.402l2.649,2.597l1.417,1.398l1.431,1.395l-0.03,0.061
			c31.102,30.989,34.917,37.609,56.907,62.184c23.409,26.148,33.58,50.926,33.58,50.926s75.853-25.367,68.227-38.179
			c-7.638-12.815-10.243-31.907-10.243-31.907c-2.424-44.787-37.649-101.027-35.045-101.027c0.177,0,0.562,0.276,1.143,0.858
			c5.214,5.189,8.849,8.019,13.08,8.019c2.998,0,6.288-1.427,10.64-4.437c10.487-7.262-10.411-29.73-10.411-29.73
			s4.816-1.303,11.225-10.896c6.4-9.598-32.973-30.036-32.973-30.036s14.166-2.905,11.076-14.555
			c-0.269-1.012-0.621-2.072-1.178-3.226c-0.076-0.167-0.169-0.285-0.245-0.441c-0.016-0.054-0.056-0.1-0.088-0.15l-17.356,6.709
			l-1.17-3.112l-4.648-12.363l0.016-0.008c-1.932-3.468-4.508-10.538-4.508-10.538c-5.383-14.787-11.778-18.753-17.084-18.753
			c-6.117,0-10.786,5.26-10.786,5.26s-18.224,11.588-8.716,51.746c0.269,1.143,0.487,2.176,0.739,3.266
			c0.291,1.303,0.613,2.653,0.87,3.892c0.292,1.366,0.533,2.625,0.786,3.928c6.099,30.909,1.963,39.12,1.963,39.12
			c-3.198,2.753-6.158,3.852-8.84,3.852c-5.597,0-9.993-4.733-12.83-8.981c-0.278-0.841-0.547-1.73-0.797-2.637
			c-0.228-0.813-0.441-1.655-0.635-2.496c-2.985-12.684-3.526-29.21-3.564-30.545l1.395-2.023c0.644-1.327,1.407-2.453,2.146-3.627
			l-14.917-36.047c-3.044,3.14-6.382,6.608-10.432,10.744c-19.975,20.422-19.586,32.672-25.183,67.216
			c-3.73,22.999-13.739,31.094-9.077,44.724C140.462,327.444,145.361,333.592,148.813,337.227z" fill="#FFD700"/>
	</g>
</g>
<g>
</g>
<g>
</g>
<g>
</g>
<g>
</g>
<g>
</g>
<g>
</g>
<g>
</g>
<g>
</g>
<g>
</g>
<g>
</g>
<g>
</g>
<g>
</g>
<g>
</g>
<g>
</g>
<g>
</g>
</svg>
