<?xml version="1.0" encoding="iso-8859-1"?>
<!-- Generator: Adobe Illustrator 17.1.0, SVG Export Plug-In . SVG Version: 6.00 Build 0)  -->
<!DOCTYPE svg PUBLIC "-//W3C//DTD SVG 1.1//EN" "http://www.w3.org/Graphics/SVG/1.1/DTD/svg11.dtd">
<svg version="1.1" id="Capa_1" xmlns="http://www.w3.org/2000/svg" xmlns:xlink="http://www.w3.org/1999/xlink" x="0px" y="0px"  viewBox="0 0 438.241 438.241" style="enable-background:new 0 0 438.241 438.241;" xml:space="preserve">
<g>
	<path d="M366.526,294.454c-3.906-3.905-10.238-3.905-14.143,0c-3.905,3.905-3.905,10.237,0,14.142l1.716,1.715L250.312,414.099
		l-166.17-166.17l1.716-1.716c3.905-3.905,3.905-10.237,0-14.143c-3.905-3.905-10.237-3.905-14.143,0l-8.787,8.787
		c-1.875,1.875-2.929,4.419-2.929,7.071s1.054,5.196,2.929,7.071l180.312,180.312c1.953,1.953,4.512,2.929,7.071,2.929
		s5.118-0.976,7.071-2.929l117.93-117.929c1.875-1.875,2.929-4.419,2.929-7.071c0-2.652-1.054-5.196-2.929-7.071L366.526,294.454z"
		 fill="	#FFD700"/>
	<path d="M366.526,234.454c-3.906-3.905-10.238-3.905-14.143,0c-3.905,3.905-3.905,10.237,0,14.142l1.716,1.715L250.312,354.099
		l-166.17-166.17l1.716-1.716c3.905-3.905,3.905-10.237,0-14.142s-10.237-3.905-14.142,0l-8.787,8.787
		c-3.905,3.905-3.905,10.237,0,14.142l180.312,180.312c1.953,1.953,4.512,2.929,7.071,2.929s5.118-0.976,7.071-2.929l117.93-117.929
		c1.875-1.875,2.929-4.419,2.929-7.071c0-2.652-1.054-5.196-2.929-7.071L366.526,234.454z" fill="	#FFD700"/>
	<path d="M243.241,315.313c1.953,1.953,4.512,2.929,7.071,2.929s5.118-0.976,7.071-2.929l117.93-117.929
		c1.875-1.875,2.929-4.419,2.929-7.071s-1.054-5.196-2.929-7.071L195.001,2.929c-3.905-3.905-10.237-3.905-14.142,0l-117.93,117.93
		c-1.875,1.875-2.929,4.418-2.929,7.071s1.054,5.196,2.929,7.071L243.241,315.313z M187.929,24.142l166.17,166.17L250.312,294.099
		l-166.17-166.17L187.929,24.142z" fill="	#FFD700"/>
	<path d="M256.948,192.44c5.52-0.199,9.833-4.833,9.634-10.353l-1.055-29.338c-0.188-5.241-4.393-9.446-9.634-9.634l-20.041-0.721
		l-0.722-20.042c-0.188-5.24-4.393-9.445-9.633-9.634l-29.342-1.057c-5.514-0.201-10.155,4.114-10.354,9.634
		c-0.199,5.519,4.114,10.154,9.634,10.354l20.043,0.722l0.722,20.043c0.189,5.241,4.394,9.445,9.634,9.634l20.04,0.721l0.721,20.039
		c0.193,5.397,4.63,9.641,9.986,9.641C256.704,192.446,256.826,192.444,256.948,192.44z" fill="	#FFD700"/>
	<path d="M181.653,135.795c-3.906-3.904-10.237-3.904-14.142,0c-3.905,3.905-3.906,10.237,0,14.143l60.792,60.793
		c1.953,1.953,4.512,2.929,7.071,2.929c2.559,0,5.119-0.977,7.071-2.929c3.905-3.905,3.905-10.237,0-14.143L181.653,135.795z" fill="	#FFD700"/>
</g>
<g>
</g>
<g>
</g>
<g>
</g>
<g>
</g>
<g>
</g>
<g>
</g>
<g>
</g>
<g>
</g>
<g>
</g>
<g>
</g>
<g>
</g>
<g>
</g>
<g>
</g>
<g>
</g>
<g>
</g>
</svg>
