<?xml version="1.0" encoding="iso-8859-1"?>
<!-- Generator: Adobe Illustrator 18.0.0, SVG Export Plug-In . SVG Version: 6.00 Build 0)  -->
<!DOCTYPE svg PUBLIC "-//W3C//DTD SVG 1.1//EN" "http://www.w3.org/Graphics/SVG/1.1/DTD/svg11.dtd">
<svg version="1.1" id="Capa_1" xmlns="http://www.w3.org/2000/svg" xmlns:xlink="http://www.w3.org/1999/xlink" x="0px" y="0px"
	 viewBox="0 0 278 278" style="enable-background:new 0 0 278 278;" xml:space="preserve">
<g>
	<path d="M272,85.956H6c-3.313,0-6,2.687-6,6v94.089c0,3.313,2.687,6,6,6h266c3.313,0,6-2.687,6-6V91.956
		C278,88.642,275.313,85.956,272,85.956z M266,180.044H12V97.956h254V180.044z" fill="	#FFD700"/>
	<polygon points="51.202,153.806 62.924,142.701 59.633,158.535 70.737,158.535 67.242,142.907 79.168,153.806 84.925,143.73 
		70.12,139.001 84.925,134.27 79.58,124.606 67.447,135.196 70.737,119.465 59.633,119.465 63.129,135.094 50.792,124.606 
		45.445,134.27 60.25,138.795 45.445,143.73 	" fill="	#FFD700"/>
	<polygon points="106.924,153.806 118.645,142.701 115.355,158.535 126.458,158.535 122.964,142.907 134.889,153.806 
		140.647,143.73 125.842,139.001 140.647,134.27 135.301,124.606 123.168,135.196 126.458,119.465 115.355,119.465 118.851,135.094 
		106.513,124.606 101.167,134.27 115.972,138.795 101.167,143.73 	" fill="	#FFD700"/>
	<polygon points="163.646,153.806 175.367,142.701 172.077,158.535 183.18,158.535 179.685,142.907 191.611,153.806 197.369,143.73 
		182.564,139.001 197.369,134.27 192.023,124.606 179.89,135.196 183.18,119.465 172.077,119.465 175.573,135.094 163.235,124.606 
		157.888,134.27 172.693,138.795 157.888,143.73 	" fill="	#FFD700"/>
	<path d="M225.604,156.566h7v-7.851h3.95v-5.45h-3.95v-22.201h-7.951l-13.051,21.601v6.05h14.001V156.566z M216.754,143.265
		l8.9-15.251h0.1c0,1.1-0.15,6.65-0.15,15.251H216.754z" fill="	#FFD700"/>
</g>
<g>
</g>
<g>
</g>
<g>
</g>
<g>
</g>
<g>
</g>
<g>
</g>
<g>
</g>
<g>
</g>
<g>
</g>
<g>
</g>
<g>
</g>
<g>
</g>
<g>
</g>
<g>
</g>
<g>
</g>
</svg>
