<?xml version="1.0" encoding="iso-8859-1"?>
<!-- Generator: Adobe Illustrator 19.0.0, SVG Export Plug-In . SVG Version: 6.00 Build 0)  -->
<svg version="1.1" id="Capa_1" xmlns="http://www.w3.org/2000/svg" xmlns:xlink="http://www.w3.org/1999/xlink" x="0px" y="0px"
	 viewBox="0 0 431.908 431.908" style="enable-background:new 0 0 431.908 431.908;" xml:space="preserve">
<g>
	<path d="M86.064,279.116c-1.955-5.355-5.898-7.865-9.944-8.145c-3.205-2.198-7.402-3.157-11.971-2.04
		c-11.211,2.742-15.273,15.386-14.057,25.674c1.464,12.39,13.838,18.922,25.042,13.057
		C85.212,302.387,89.904,289.657,86.064,279.116z" fill="#FFD700"/>
	<path d="M132.077,264.365c-9.031-9.423-23.283-7.46-31.104,3.776c-6.949,9.988-10.714,28.184-7.976,40.092
		c3.483,15.135,20.451,18.719,29.773,6.484c8.804-11.553,12.753-26.492,13.939-40.725
		C137.102,269.299,135.026,266.209,132.077,264.365z" fill="#FFD700"/>
	<path d="M181.41,280.151c-0.829-5.627-5.328-8.184-10.168-8.427c-2.251-1.376-4.848-2.251-7.746-2.15
		c-7.88,0.274-12.806,7.28-16.127,13.592c-6.436,12.232-15.055,32.277-9.129,46.029c2.791,6.482,9.127,10.72,16.287,9.792
		c7.501-0.973,12.539-7.511,16.618-13.294C180.506,312.419,183.749,296.053,181.41,280.151z" fill="#FFD700"/>
	<path d="M216.561,315.24c-0.655-1.083-1.492-1.951-2.415-2.692c-6.889-7.124-16.595-8.772-25.04-1.397
		c-8.06,7.04-12.563,22.692-9.598,32.968c3.893,13.494,19.782,14.138,28.629,5.238C216.553,340.894,223.299,326.384,216.561,315.24z
		" fill="#FFD700"/>
	<path d="M360.301,243.312c14.612-38.196-42.94-64.975-69.229-79.915c-19.117-10.865-45.247-29.418-68.157-34.924
		c-3.665-2.679-8.636-4.013-13.195-3.699c-2.08-0.917-4.332-1.394-6.38-0.847c-6.334,1.694-11.272,5.344-16.583,9.019
		c-3.363,2.327-7.314,4.726-10.326,7.782c-7.712,0.76-14.824,7.132-11.811,16.643c6.422,20.294,6.33,58.443-26.612,46.848
		c-28.009-9.858-25.213-39.833-21.688-62.987c1.064-6.986-2.953-15.499-11.379-14.938c-41.465,2.762-79.347,25.477-96.907,64.114
		c-13.445,29.585-12.691,75.923,23.143,88.247c1.042,0.358,2.048,0.122,3.043-0.073c4.62,3.689,11.837-0.462,12.595-6.485
		c0.296-2.341,12.683-5.991,14.576-6.375c3.073-0.624,16.502-2.587,18.646,0.461c5.535,7.871,16.855,3.524,17.732-3.745
		c11.667-12.58,29.211-20.33,38.779-0.365c4.213,8.792,14.544,6.403,18.856-0.131c17.841-0.939,32.063,8.068,32.231,28.618
		c0.026,3.19,1.427,5.235,3.314,6.435c1.283,2.176,3.741,3.632,7.093,2.897c38.837-8.504,13.424,42.229,28.199,57.748
		c9.942,10.442,24.076,4.386,27.805-8.039c4.862-16.191,4.296-37.837-6.337-51.452c-10.212-13.075-25.649-21.135-39.223-31.087
		c11.636,0.898,38.846,21.628,41.548,24.196c7.055,6.71,10.006,13.06,11.063,22.277c0.77,6.719-0.624,12.518,2.105,19.027
		c5.64,13.459,22,15.312,30.546,3.179c10.116-14.358,6.311-41.031-4.979-53.452c-8.326-9.164-20.816-15.977-30.796-22.942
		c-12.158-8.482-24.487-16.759-36.981-24.744c0.949-3.737,4.375-7.11,10.986-10.012c3.386,1.93,6.604,4.104,9.662,6.521
		c7.294,5.177,14.359,10.801,21.509,16.178c9.044,6.801,20.232,13.194,27.904,21.439c11.191,12.031,8.543,20.411,12.323,34.308
		c3.783,13.902,15.705,21.953,26.66,8.18c12.678-15.941,7.257-51.822-5.49-65.996c-10.769-11.976-27.062-20.45-40.201-29.333
		c-16.187-10.945-32.827-21.122-49.611-31.12c8.963-6.26,39.288,15.996,44.174,19.454c17.094,12.098,33.993,23.339,47.128,39.904
		c9.351,11.795,18.525,20.635,32.221,8.705c2.339-2.039,3.08-5.745,2.283-8.636L360.301,243.312z" fill="#FFD700"/>
	<path d="M340.866,134.172c-17.252-12.229-35.632-23.114-53.662-33.665c-20.366-11.916-43.03-27.852-66.915-31.172
		c-23.839-3.314-86.702,14.025-87.981,44.703c-1.753,1.038-3.207,2.624-3.916,4.848c-6.036,18.931-20.893,84.366,17.106,82.489
		c20.143-0.995,19.227-27.893,13.023-48.568c2.91-8.173,7.742-14.748,16.415-20.757c6.528-4.522,13.6-8.578,20.298-13.064
		c34.368,7.411,64.832,15.472,96.97,32.791c12.147,6.547,24.303,13.305,35.497,21.417c15.928,11.543,83.811,72.642,25.156,92.182
		c-2.475,0.825-4.052,2.377-5.163,4.151c-2.222,0.472-4.229,1.694-4.752,4.449c-3.974,20.908,13.286,27.429,31.499,24.646
		c27.443-4.195,50.608-20.82,56.085-48.889C440.898,196.57,391.083,146.135,340.866,134.172z" fill="#FFD700"/>
</g>
<g>
</g>
<g>
</g>
<g>
</g>
<g>
</g>
<g>
</g>
<g>
</g>
<g>
</g>
<g>
</g>
<g>
</g>
<g>
</g>
<g>
</g>
<g>
</g>
<g>
</g>
<g>
</g>
<g>
</g>
</svg>
