<svg height="480pt" viewBox="-8 0 480 480.00012" width="480pt" xmlns="http://www.w3.org/2000/svg"><path d="m463.199219 68.585938c0-.058594 0-.113282 0-.160157l-32-64c-1.359375-2.726562-4.152344-4.441406-7.199219-4.425781h-384c-3.03125 0-5.804688 1.710938-7.160156 4.425781l-32 64v.160157c-.535156 1.058593-.8203128 2.226562-.839844 3.414062v64c.0351562 12.523438 5.964844 24.300781 16 31.792969v160.207031c.027344 22.082031 17.917969 39.972656 40 40h120v48h-16c-30.914062.035156-55.964844 25.085938-56 56v8h256v-8c-.035156-30.914062-25.085938-55.964844-56-56h-16v-48h120c22.082031-.027344 39.972656-17.917969 40-40v-160.207031c10.035156-7.492188 15.964844-19.269531 16-31.792969v-64c-.007812-1.183594-.28125-2.351562-.800781-3.414062zm-418.253907-52.585938h374.109376l24 48h-422.109376zm339.054688 120c0 13.253906-10.746094 24-24 24s-24-10.746094-24-24v-56h48zm-64 0c0 13.253906-10.746094 24-24 24s-24-10.746094-24-24v-56h48zm-64 0c0 13.253906-10.746094 24-24 24s-24-10.746094-24-24v-56h48zm-192 0c0 13.253906-10.746094 24-24 24s-24-10.746094-24-24v-56h48zm16-56h48v56c0 13.253906-10.746094 24-24 24s-24-10.746094-24-24zm64 0h48v56c0 13.253906-10.746094 24-24 24s-24-10.746094-24-24zm160 352c19.003906.019531 35.375 13.386719 39.199219 32h-222.398438c3.824219-18.613281 20.199219-31.980469 39.199219-32zm-32-16h-80v-48h80zm160-88c0 13.253906-10.746094 24-24 24h-352c-13.253906 0-24-10.746094-24-24v-152.800781c15.207031 3.117187 30.832031-2.914063 40-15.4375 7.460938 10.210937 19.351562 16.25 32 16.25s24.539062-6.039063 32-16.25c7.460938 10.210937 19.351562 16.25 32 16.25s24.539062-6.039063 32-16.25c7.460938 10.210937 19.351562 16.25 32 16.25s24.539062-6.039063 32-16.25c7.460938 10.210937 19.351562 16.25 32 16.25s24.539062-6.039063 32-16.25c7.460938 10.210937 19.351562 16.25 32 16.25s24.539062-6.039063 32-16.25c9.167969 12.523437 24.792969 18.554687 40 15.4375zm16-192c0 13.253906-10.746094 24-24 24s-24-10.746094-24-24v-56h48zm0 0" fill="#FFD700"/><path d="m416 192h-16v96h-336v-96h-16v112h368zm0 0" fill="#FFD700"/><path d="m256 328c0-13.253906-10.746094-24-24-24s-24 10.746094-24 24 10.746094 24 24 24 24-10.746094 24-24zm-24 8c-4.417969 0-8-3.582031-8-8s3.582031-8 8-8 8 3.582031 8 8-3.582031 8-8 8zm0 0" fill="#FFD700"/><path d="m136 208c4.417969 0 8 3.582031 8 8h16c-.042969-10.132812-6.445312-19.148438-16-22.527344v-9.472656h-16v9.472656c-11.011719 3.878906-17.621094 15.132813-15.644531 26.640625 1.980469 11.507813 11.96875 19.910157 23.644531 19.886719 4.417969 0 8 3.582031 8 8s-3.582031 8-8 8-8-3.582031-8-8h-16c.042969 10.132812 6.445312 19.148438 16 22.527344v9.472656h16v-9.472656c11.011719-3.878906 17.621094-15.132813 15.644531-26.640625-1.980469-11.507813-11.96875-19.910157-23.644531-19.886719-4.417969 0-8-3.582031-8-8s3.582031-8 8-8zm0 0" fill="#FFD700"/><path d="m192 208h16v16h-16zm0 0" fill="#FFD700"/><path d="m224 208h128v16h-128zm0 0" fill="#FFD700"/><path d="m192 232h16v16h-16zm0 0" fill="#FFD700"/><path d="m224 232h128v16h-128zm0 0" fill="#FFD700"/><path d="m192 256h16v16h-16zm0 0" fill="#FFD700"/><path d="m224 256h128v16h-128zm0 0" fill="#FFD700"/></svg>